<svg width="95" height="32" viewBox="0 0 95 32" fill="none" xmlns="http://www.w3.org/2000/svg">
    <path d="M9.08936 7.83715C9.08936 6.96798 9.65073 6.1983 10.4784 5.93277L26.3587 0.837714C27.6495 0.423566 28.9697 1.38646 28.9697 2.7421V10.9589C28.9697 11.9012 28.312 12.7156 27.3909 12.9141L11.5105 16.3351C10.2649 16.6035 9.08936 15.6542 9.08936 14.38V7.83715Z" fill="#92BDFF"/>
    <path d="M0.70923 13.0387C0.285072 13.1835 0 13.5821 0 14.0303V22.4251C0 23.1043 0.636257 23.604 1.29612 23.4431L9.0894 22.0321V30.9523C9.0894 31.531 9.55853 32.0002 10.1372 32.0002H18.2653C18.844 32.0002 19.3132 31.531 19.3132 30.9523V8.36751C19.3132 7.64908 18.6066 7.14374 17.9267 7.3759L0.70923 13.0387Z" fill="#0066FE" fill-opacity="0.8"/>
    <path d="M19.3131 14.6544L11.6872 16.2972C10.3507 16.5851 9.08936 15.5666 9.08936 14.1994V10.2825L17.9267 7.3759C18.6066 7.14374 19.3131 7.64908 19.3131 8.36751V14.6544Z" fill="#0066FE"/>
    <path d="M37.1135 20.8445H33.3508V31.8104H30.7428V20.8445H27V18.6665H37.1135V20.8445Z" fill="#292F47"/>
    <path d="M43.9264 21.3938L43.8467 23.515H43.5879C43.2428 23.515 42.9044 23.5466 42.5726 23.6097C42.254 23.6728 41.9554 23.7928 41.6767 23.9695C41.398 24.1337 41.1524 24.3609 40.9401 24.6514C40.7277 24.9291 40.5751 25.289 40.4822 25.7309V31.8104H37.9936V21.5832H40.4822V23.4203C40.6415 23.0036 40.8405 22.6627 41.0794 22.3976C41.3184 22.1324 41.5772 21.9241 41.8559 21.7726C42.1479 21.621 42.4465 21.52 42.7518 21.4695C43.0703 21.419 43.3888 21.3938 43.7074 21.3938H43.9264Z" fill="#292F47"/>
    <path d="M49.3735 21.3938C50.2495 21.3938 50.9861 21.4695 51.5833 21.621C52.1806 21.7726 52.6584 21.9872 53.0167 22.265C53.3883 22.5428 53.6472 22.89 53.7932 23.3067C53.9524 23.7107 54.0321 24.1652 54.0321 24.6703V31.8104H51.8222L51.5634 30.5036C51.298 30.9455 50.8467 31.3054 50.2096 31.5832C49.5858 31.8609 48.8426 31.9998 47.9799 31.9998C45.5245 31.9998 44.2968 30.9708 44.2968 28.9127C44.2968 27.7132 44.6751 26.8736 45.4316 26.3938C46.1881 25.9014 47.2632 25.6551 48.6568 25.6551H51.5435V25.2006C51.5435 24.8976 51.5103 24.6324 51.444 24.4051C51.3776 24.1779 51.2515 23.9885 51.0657 23.837C50.8932 23.6854 50.6476 23.5718 50.3291 23.496C50.0106 23.4203 49.6057 23.3824 49.1147 23.3824C48.7298 23.3824 48.3449 23.4014 47.96 23.4392C47.5751 23.4771 47.1902 23.5276 46.8053 23.5907V21.5642C47.2167 21.5011 47.6481 21.4569 48.0993 21.4317C48.5639 21.4064 48.9886 21.3938 49.3735 21.3938ZM48.5174 30.1438C49.2739 30.1438 49.911 30.0112 50.4286 29.746C50.9462 29.4809 51.3179 29.1274 51.5435 28.6854V27.3407H48.9952C48.2122 27.3407 47.6415 27.4418 47.2831 27.6438C46.938 27.8332 46.7655 28.2309 46.7655 28.837C46.7655 29.2789 46.8982 29.6072 47.1637 29.8218C47.4424 30.0365 47.8936 30.1438 48.5174 30.1438Z" fill="#292F47"/>
    <path d="M63.0946 21.3938C63.7715 21.3938 64.3355 21.4695 64.7868 21.621C65.2513 21.7726 65.623 21.9935 65.9017 22.2839C66.1804 22.5743 66.3795 22.9342 66.4989 23.3635C66.6184 23.7801 66.6781 24.2599 66.6781 24.8029V31.8104H64.1895V25.4657C64.1895 24.746 64.0701 24.2157 63.8312 23.8748C63.5923 23.5339 63.0946 23.3635 62.3381 23.3635C61.701 23.3635 61.1568 23.4771 60.7056 23.7044C60.2676 23.919 59.9358 24.3483 59.7102 24.9923V31.8104H57.2216V21.5832H59.7102V22.871C60.0154 22.3407 60.4667 21.962 61.0639 21.7347C61.6744 21.5074 62.3513 21.3938 63.0946 21.3938Z" fill="#292F47"/>
    <path d="M72.4293 23.4771V28.4014C72.4293 28.7296 72.4426 29.0011 72.4691 29.2157C72.5089 29.4304 72.5753 29.6008 72.6682 29.7271C72.7744 29.8534 72.9137 29.9418 73.0863 29.9923C73.2588 30.0301 73.4844 30.0491 73.7632 30.0491C73.949 30.0491 74.1215 30.0428 74.2808 30.0301C74.44 30.0175 74.5927 29.9923 74.7387 29.9544V31.8294C74.5263 31.8546 74.3073 31.8736 74.0817 31.8862C73.8561 31.9115 73.6304 31.9241 73.4048 31.9241C72.7677 31.9241 72.2236 31.8799 71.7723 31.7915C71.3343 31.6905 70.976 31.52 70.6973 31.2801C70.4318 31.0276 70.2394 30.6867 70.1199 30.2574C70.0005 29.8155 69.9407 29.2599 69.9407 28.5907V23.4771H68.4476V21.5832H69.9407V19.1589H72.4293V21.5832H74.7984V23.4771H72.4293Z" fill="#292F47"/>
    <path d="M81.3201 31.9998C80.4972 31.9998 79.7673 31.9178 79.1302 31.7536C78.4931 31.5895 77.9556 31.3054 77.5176 30.9014C77.0796 30.4973 76.7412 29.9544 76.5023 29.2726C76.2766 28.5907 76.1638 27.7322 76.1638 26.6968C76.1638 25.6615 76.2766 24.8029 76.5023 24.121C76.7412 23.4392 77.0796 22.8963 77.5176 22.4923C77.9556 22.0882 78.4931 21.8041 79.1302 21.64C79.7673 21.4758 80.4972 21.3938 81.3201 21.3938C82.143 21.3938 82.873 21.4758 83.51 21.64C84.1604 21.8041 84.7045 22.0882 85.1425 22.4923C85.5805 22.8963 85.9123 23.4392 86.138 24.121C86.3769 24.8029 86.4963 25.6615 86.4963 26.6968C86.4963 27.7322 86.3769 28.5907 86.138 29.2726C85.9123 29.9544 85.5805 30.4973 85.1425 30.9014C84.7045 31.3054 84.1604 31.5895 83.51 31.7536C82.873 31.9178 82.143 31.9998 81.3201 31.9998ZM81.3201 30.1627C81.8245 30.1627 82.2425 30.1059 82.5743 29.9923C82.9062 29.8786 83.1716 29.6892 83.3707 29.4241C83.5698 29.1589 83.7091 28.8054 83.7888 28.3635C83.8817 27.9216 83.9281 27.366 83.9281 26.6968C83.9281 26.0402 83.8817 25.491 83.7888 25.0491C83.7091 24.5945 83.5631 24.2347 83.3508 23.9695C83.1517 23.6918 82.8862 23.496 82.5544 23.3824C82.2226 23.2688 81.8112 23.212 81.3201 23.212C80.829 23.212 80.4176 23.2688 80.0858 23.3824C79.754 23.496 79.4885 23.6918 79.2895 23.9695C79.0904 24.2347 78.9444 24.5945 78.8515 25.0491C78.7718 25.491 78.732 26.0402 78.732 26.6968C78.732 27.366 78.7718 27.9216 78.8515 28.3635C78.9444 28.8054 79.0904 29.1589 79.2895 29.4241C79.5018 29.6892 79.7739 29.8786 80.1057 29.9923C80.4375 30.1059 80.8423 30.1627 81.3201 30.1627Z" fill="#292F47"/>
    <path d="M95 21.3938L94.9204 23.515H94.6616C94.3165 23.515 93.978 23.5466 93.6462 23.6097C93.3277 23.6728 93.0291 23.7928 92.7503 23.9695C92.4716 24.1337 92.2261 24.3609 92.0137 24.6514C91.8014 24.9291 91.6488 25.289 91.5558 25.7309V31.8104H89.0673V21.5832H91.5558V23.4203C91.7151 23.0036 91.9142 22.6627 92.1531 22.3976C92.392 22.1324 92.6508 21.9241 92.9295 21.7726C93.2215 21.621 93.5201 21.52 93.8254 21.4695C94.1439 21.419 94.4625 21.3938 94.781 21.3938H95Z" fill="#292F47"/>
</svg>
